<svg width="14" height="16" viewBox="0 0 14 16" fill="none" xmlns="http://www.w3.org/2000/svg">
<path fill-rule="evenodd" clip-rule="evenodd" d="M11.6667 16H2.33334C1.59734 16 1 15.4027 1 14.6667V3.33333H0.333336V2H4.33334V1C4.33334 0.448667 4.782 0 5.33334 0H8.66667C9.21667 0 9.66667 0.447333 9.66667 1V2H13.6667V3.33333H13V14.6667C13 15.4027 12.4027 16 11.6667 16ZM2.33334 14.3333C2.33334 14.5173 2.48267 14.6667 2.66667 14.6667H11.3333C11.5173 14.6667 11.6667 14.5173 11.6667 14.3333V3.33333H2.33334V14.3333ZM5.66667 2H8.33334V1.33333H5.66667V2Z" fill="#F35456"/>
</svg>
